PathFileType  4	(X/Y/Z) C:\Users\antoi\Documents\MyRepositories\mobilecap\ResultsAnalysis
DataRate	CameraRate	NumFrames	NumMarkers	Units	OrigDataRate	OrigDataStartFrame	OrigNumFrames
100.0	100.0	7	51	mm	100.0	156	311
Frame#	Time	r_knee			r_shank_antsup			r_ankle			r_calc			r_5meta			r_toe			L_knee			L_shank_antsup			L_ankle			L_calc			L_5meta			L_toe			r_sh2			r_sh3			r_sh4			L_sh2			L_sh3			r_thigh1			r_thigh2			r_thigh3			r_thigh4			r_thigh5			L_thigh1			L_thigh2			L_thigh3			L_thigh4			r.ASIS			r.PSIS			L.ASIS			L.PSIS			C7			R_Shoulder			L_Shoulder			R_Sternum			L_Sternum			R_humerus			R_elbow_med			R_elbow_lat			R_forearm			R_wrist_radius			R_wrist_ulna			L_humerus			L_elbow_med			L_elbow_lat			L_forearm			L_wrist_radius			L_wrist_ulna			R_HJC			L_HJC			R_HJC_reg			L_HJC_reg			
		X1	Y1	Z1	X2	Y2	Z2	X3	Y3	Z3	X4	Y4	Z4	X5	Y5	Z5	X6	Y6	Z6	X7	Y7	Z7	X8	Y8	Z8	X9	Y9	Z9	X10	Y10	Z10	X11	Y11	Z11	X12	Y12	Z12	X13	Y13	Z13	X14	Y14	Z14	X15	Y15	Z15	X16	Y16	Z16	X17	Y17	Z17	X18	Y18	Z18	X19	Y19	Z19	X20	Y20	Z20	X21	Y21	Z21	X22	Y22	Z22	X23	Y23	Z23	X24	Y24	Z24	X25	Y25	Z25	X26	Y26	Z26	X27	Y27	Z27	X28	Y28	Z28	X29	Y29	Z29	X30	Y30	Z30	X31	Y31	Z31	X32	Y32	Z32	X33	Y33	Z33	X34	Y34	Z34	X35	Y35	Z35	X36	Y36	Z36	X37	Y37	Z37	X38	Y38	Z38	X39	Y39	Z39	X40	Y40	Z40	X41	Y41	Z41	X42	Y42	Z42	X43	Y43	Z43	X44	Y44	Z44	X45	Y45	Z45	X46	Y46	Z46	X47	Y47	Z47	X48	Y48	Z48	X49	Y49	Z49	X50	Y50	Z50	X51	Y51	Z51	

156	1.55000000	-153.08266	438.51669	-423.60432	-110.55851	367.74502	-432.43179	-301.78490	90.89423	-453.16830	-364.13445	67.08985	-498.38559	-206.74814	41.43721	-425.57177	-161.39925	54.10122	-477.18947	-144.72499	453.52575	-777.16740	-112.66073	356.95812	-763.96066	-277.36750	100.82094	-792.91702	-347.86748	66.30205	-752.94605	-186.12407	42.83082	-816.50215	-135.73024	54.64922	-761.52348	-165.12043	269.27987	-425.10322	-169.52394	405.17029	-399.80916	-234.52358	306.74876	-397.71471	-175.68912	401.79570	-813.27623	-222.46371	287.65504	-825.67588	-307.96756	640.84783	-391.25541	-219.81293	569.73802	-398.19110	-287.95321	483.58967	-423.89658	-380.09723	557.21443	-414.32372	-245.25822	504.95262	-394.98981	-312.05219	675.83647	-796.15110	-209.87291	582.93904	-785.26776	-390.80789	595.48230	-791.54474	-287.84429	501.17130	-764.72815	-334.15306	761.48150	-472.43252	-528.94276	835.10253	-554.44950	-338.39696	765.47207	-695.56434	-525.25528	840.88699	-635.37281	-278.22154	1226.96658	-522.17696	-236.27026	1177.12077	-400.52805	-244.42554	1224.40291	-637.71884	-175.12835	1125.22271	-502.94668	-169.79849	1135.92407	-552.21448	-213.85829	1110.14175	-314.28528	-265.02305	930.24128	-188.10521	-227.75673	980.85244	-155.55973	-135.78658	942.33665	-158.16210	-30.71105	844.34720	-145.85267	-42.19535	842.60842	-109.58505	-229.07329	1221.18813	-741.08102	-189.47191	1096.77226	-925.91073	-184.22091	1168.18476	-927.09178	-76.90250	1175.82123	-906.19656	44.79101	1154.62489	-872.67682	49.42153	1146.26809	-912.88989	-435.64773	695.22113	-484.60901	-430.75527	699.80637	-692.00753	-420.99290	703.48998	-510.78395	-414.36065	713.92334	-657.63849	
157	1.56000000	-147.96142	430.61110	-425.90885	-104.32665	360.22141	-434.36944	-300.93966	91.55819	-453.35839	-363.79502	67.82744	-498.69132	-206.68778	41.38102	-425.88586	-160.88042	53.94094	-477.41321	-139.99285	439.59677	-774.86368	-109.27132	346.21011	-764.88397	-278.86392	97.90592	-791.24061	-349.21627	61.83006	-751.91113	-186.97435	42.94403	-816.41233	-136.38832	54.75504	-761.16015	-158.87264	261.48734	-429.46013	-163.42171	395.40024	-400.29228	-227.17159	297.61350	-399.15832	-173.62486	391.58512	-811.61928	-221.94704	277.76073	-822.58288	-305.27321	627.42277	-393.29492	-215.66927	559.17489	-398.17225	-281.55630	472.96129	-429.25641	-375.46013	542.96605	-415.29019	-239.94378	493.58173	-399.15463	-308.84433	663.25134	-795.81956	-205.40293	571.55476	-784.12969	-386.27451	581.58569	-791.08331	-282.69026	488.68038	-762.66575	-333.08794	753.20668	-470.60887	-525.53453	824.17570	-556.67894	-332.83325	752.70213	-692.82421	-520.02041	830.02478	-637.49940	-266.43824	1211.67820	-521.63563	-224.17961	1158.04072	-400.06400	-231.53621	1206.51338	-638.06698	-166.07365	1102.02166	-503.11590	-162.39210	1114.18668	-550.80819	-201.37627	1088.26977	-317.25148	-251.31365	905.41755	-197.46152	-213.84000	954.09662	-162.67218	-122.39037	913.43595	-163.85267	-20.60387	810.89069	-152.58106	-32.36780	809.01262	-115.34249	-214.14530	1200.72388	-742.09994	-176.04084	1069.55061	-922.18728	-169.93632	1140.86588	-926.61328	-61.08021	1145.20135	-905.27649	59.71723	1119.35250	-872.25690	63.61657	1110.32616	-912.49643	-433.85511	686.29882	-482.86724	-425.12216	687.36855	-690.19796	-418.36382	692.17886	-510.86913	-408.43478	702.72982	-656.85427	
158	1.57000000	-142.46712	424.21316	-429.40324	-99.88654	353.11730	-436.16514	-300.80437	91.43017	-454.05690	-364.15778	67.32719	-499.36977	-206.87000	41.44210	-426.19664	-160.78420	53.82967	-477.96539	-135.41299	430.95056	-772.57231	-106.33474	341.17077	-766.77098	-278.69092	97.38843	-792.22236	-349.65714	60.94904	-752.97033	-187.06405	42.73511	-817.16383	-136.77697	54.42052	-761.68349	-157.33577	255.52285	-433.90468	-158.23551	388.76064	-401.53379	-224.88385	293.19392	-401.71270	-172.77615	388.15691	-808.74554	-221.84393	274.87748	-822.30462	-301.38905	614.13855	-394.32322	-211.53275	547.34991	-399.35754	-277.24416	462.50900	-437.70768	-371.55787	530.73639	-418.46631	-236.09979	481.33546	-408.06084	-306.20521	650.77297	-795.21037	-200.98765	561.05856	-783.15436	-382.50025	568.00541	-789.74683	-277.68227	477.47540	-759.25821	-332.01760	743.61326	-470.13967	-522.29083	814.77102	-557.63871	-328.05963	743.69438	-689.37919	-516.86026	819.71500	-638.74769	-254.06075	1197.65582	-521.17573	-212.76122	1140.54171	-400.14099	-218.39636	1189.80557	-638.54916	-157.44156	1082.31353	-505.16124	-155.46348	1093.43038	-547.68296	-189.03630	1067.86371	-320.32611	-238.37704	882.61984	-207.54510	-200.55836	929.08597	-170.01579	-109.84645	886.55465	-170.90998	-11.43968	779.74446	-160.74765	-23.22598	778.05515	-123.00230	-198.94340	1180.93836	-742.50906	-162.50519	1043.41825	-917.84007	-154.89948	1114.83347	-925.67776	-44.75253	1114.78532	-903.82272	74.65544	1083.50729	-871.18711	78.09263	1074.32950	-911.21546	-432.21558	676.62978	-482.63678	-420.18900	677.88854	-689.79402	-415.37780	685.26447	-509.08287	-405.70498	694.06455	-653.19130	
159	1.58000000	-138.50562	420.31027	-432.59241	-97.34829	350.09368	-438.59234	-301.03784	91.02013	-454.89411	-364.79973	66.31746	-500.33303	-207.17160	41.59375	-426.51364	-160.92920	53.77679	-478.58848	-129.39458	429.97825	-771.15806	-101.24992	340.49302	-766.74435	-277.30627	98.58988	-793.90301	-349.21978	62.78549	-754.62590	-186.67996	42.50033	-817.88088	-136.62915	54.09700	-762.53951	-156.33733	253.42539	-435.59069	-155.41880	387.31556	-405.15373	-224.35075	292.90182	-404.67720	-167.78779	389.30541	-806.28432	-217.83877	277.37556	-824.29615	-297.12350	602.69589	-394.33442	-207.89974	535.66569	-401.65844	-274.99240	452.38776	-443.86942	-368.36148	521.41794	-422.71196	-233.42683	470.15534	-415.14257	-303.89350	640.15424	-794.83078	-196.45922	553.53754	-782.68235	-378.86975	556.18112	-787.41442	-271.51764	469.15764	-756.54056	-330.73124	733.58081	-471.06838	-519.63100	807.00592	-557.64728	-324.35703	736.95481	-686.56620	-514.81962	810.90196	-639.28011	-241.45208	1184.49273	-520.86543	-201.74569	1124.69509	-400.24665	-205.32273	1174.67608	-639.28988	-148.47471	1066.82090	-507.55369	-147.22549	1076.22617	-546.09693	-177.14550	1049.16818	-323.40252	-226.30934	861.41616	-216.84307	-187.89938	905.98080	-177.18787	-98.06975	861.49975	-179.26405	-2.82804	751.24154	-170.31801	-14.26312	750.18458	-132.77920	-184.19333	1162.60178	-742.95237	-149.52759	1018.89464	-913.26026	-139.40439	1090.30289	-924.21327	-28.40207	1084.76363	-901.98333	89.13895	1047.70240	-869.58928	92.21348	1038.50283	-909.45166	-430.77049	667.06074	-483.59841	-416.60932	670.73413	-690.58484	-412.94979	680.45858	-507.79391	-404.58314	687.23544	-649.69102	
160	1.59000000	-136.54162	418.48349	-436.01682	-95.80309	349.61771	-441.17328	-301.22805	90.74019	-455.30369	-365.22951	65.61148	-500.70093	-207.35013	41.69433	-426.64728	-161.05024	53.81624	-478.91618	-121.53147	432.67688	-770.94383	-94.41468	340.35467	-765.11233	-275.39391	100.58488	-794.88601	-348.19304	66.01104	-755.76604	-186.12592	42.48101	-818.18267	-136.01383	53.96306	-763.07193	-155.25700	253.39007	-436.15719	-154.26695	387.66061	-409.77091	-223.55746	293.97436	-406.99940	-158.46282	390.76303	-805.89445	-211.54316	280.84261	-825.75356	-294.47971	594.75203	-394.76714	-205.38295	527.55814	-404.44629	-273.32010	444.70002	-446.96977	-365.94259	514.79547	-426.66005	-231.22721	462.47758	-418.68311	-302.19385	633.04513	-795.09944	-192.59474	550.03017	-782.91948	-375.51950	547.79514	-784.26778	-264.80873	464.32853	-755.54685	-329.57871	724.10201	-472.96859	-517.38656	800.93277	-556.89486	-321.59066	731.24116	-685.27111	-513.23612	803.76688	-639.20841	-229.22993	1171.82818	-520.60210	-191.14410	1110.42138	-400.03386	-192.52626	1160.78774	-640.02540	-139.28826	1054.00647	-509.36883	-137.74957	1062.41422	-546.38136	-165.84485	1032.14314	-326.45003	-215.64854	842.15549	-224.87139	-175.89273	884.88701	-184.21955	-87.15980	838.36747	-188.59765	5.21709	725.23224	-181.81234	-5.73451	724.40764	-144.26997	-169.93828	1145.80458	-743.55372	-137.65637	996.30524	-909.02390	-123.78477	1067.12093	-922.14266	-12.54655	1055.32521	-899.67686	102.71778	1012.29583	-867.35240	105.36371	1003.30463	-907.34780	-429.56310	658.40521	-485.17776	-414.59555	665.16679	-692.03455	-411.31331	676.70377	-507.59827	-404.25422	681.52841	-647.64263	
161	1.60000000	-134.99167	418.02738	-439.88857	-94.17339	349.14433	-443.51271	-301.07760	90.91666	-455.24707	-365.33936	65.72477	-500.24590	-207.31535	41.74242	-426.62214	-160.99844	53.87238	-479.02089	-113.63728	434.29825	-771.57979	-88.04688	339.46767	-763.38586	-273.55683	102.68784	-795.14106	-347.07225	69.55419	-755.97132	-185.62965	42.71994	-818.26162	-135.32381	53.92292	-763.26433	-154.53562	253.41693	-437.60066	-152.83544	387.41503	-413.36559	-222.36245	294.79529	-408.85265	-149.12441	390.44084	-806.49408	-205.41179	282.34527	-825.66491	-294.19268	591.20249	-396.36896	-204.06225	525.13071	-407.20977	-271.06391	441.41288	-448.93086	-364.26388	510.58358	-429.95780	-229.06055	459.71966	-420.36512	-300.80077	630.14194	-795.44830	-189.79098	549.83863	-783.30968	-372.63358	543.88985	-782.15466	-259.38983	462.44741	-756.09772	-328.58896	715.46110	-475.27459	-515.08412	796.48286	-555.56171	-319.84696	725.68438	-685.98309	-511.66274	798.32074	-638.37562	-217.74909	1159.61357	-520.44898	-180.92475	1097.37303	-399.79046	-179.96782	1147.47453	-640.49592	-130.56054	1041.96375	-510.65013	-128.48917	1049.62914	-546.42258	-155.09128	1016.51007	-329.18916	-206.59820	825.00204	-231.60183	-164.71328	865.68090	-190.90492	-77.27592	817.23346	-198.41847	12.41046	701.79340	-194.63500	2.13856	700.31032	-156.71190	-155.79900	1129.55662	-743.72425	-126.94378	975.50449	-905.32752	-108.44301	1045.11990	-919.59513	2.25288	1026.83602	-897.05766	114.89673	977.58318	-864.50468	117.12281	969.30791	-904.86139	-428.60269	651.01862	-486.87758	-414.33950	660.57219	-693.67508	-410.43334	673.20371	-508.17792	-404.68085	676.29166	-647.37645	
162	1.61000000	-132.85189	418.47059	-442.84484	-92.14267	348.57731	-446.20379	-300.59614	91.64043	-455.13847	-365.19525	66.72508	-499.77046	-207.14123	41.84953	-426.68231	-160.74202	53.81949	-479.20576	-108.34207	434.23586	-772.57753	-83.58297	338.89328	-762.41960	-271.93520	104.63474	-795.23053	-346.03426	72.89490	-755.67467	-185.19049	43.04765	-818.30302	-134.74215	53.85445	-763.42034	-153.32718	253.33441	-439.79773	-150.34612	387.26783	-415.62263	-220.54280	295.29320	-410.59162	-142.96784	389.47841	-807.03822	-200.43096	282.21466	-825.30831	-295.14449	591.02690	-398.50254	-203.45288	526.79377	-409.69815	-268.32927	441.65417	-450.62642	-363.17390	508.18430	-432.12839	-227.04475	460.92484	-421.25311	-299.55118	630.34228	-795.42297	-187.77123	551.28698	-783.58869	-370.21099	543.13321	-783.12536	-255.89748	462.34832	-758.25622	-327.45495	707.78507	-477.72080	-512.51667	793.72063	-554.00150	-319.20354	719.99015	-688.31343	-509.91582	794.49120	-636.85670	-206.83566	1148.18710	-520.49024	-170.88511	1085.14005	-399.65517	-167.69463	1134.76773	-640.79796	-122.34804	1029.88582	-511.36585	-119.92450	1036.88235	-545.67226	-144.79313	1001.90507	-331.33378	-199.02948	809.68519	-236.82544	-154.66488	848.23590	-196.81567	-68.62348	798.02406	-208.05002	18.57606	681.15641	-207.22323	9.46430	678.73309	-169.60823	-141.59309	1113.31136	-743.04400	-117.10001	956.09331	-902.10134	-93.72438	1024.24581	-916.54839	15.58713	999.67106	-894.20772	125.17170	944.19706	-861.67239	127.29963	936.92623	-902.15583	-427.85699	645.15733	-488.31087	-415.73074	656.62601	-695.14351	-410.15894	670.06833	-509.14288	-405.79430	671.35555	-648.39733	
